<mxfile host="app.diagrams.net" modified="2022-05-11T10:37:31.381Z" agent="5.0 (Windows NT 10.0; Win64; x64) AppleWebKit/537.36 (KHTML, like Gecko) Chrome/101.0.4951.54 Safari/537.36" etag="akrg4tBoUvv8__Xu3wtj" version="17.4.6" type="github">
  <diagram id="1zd5mMAatVFVfJRq419b" name="Page-1">
    <mxGraphModel dx="1038" dy="481" grid="1" gridSize="10" guides="1" tooltips="1" connect="1" arrows="1" fold="1" page="1" pageScale="1" pageWidth="850" pageHeight="1100" math="0" shadow="0">
      <root>
        <mxCell id="0" />
        <mxCell id="1" parent="0" />
        <mxCell id="MhT_UDYgTqqJweD6gouw-3" style="edgeStyle=orthogonalEdgeStyle;rounded=0;orthogonalLoop=1;jettySize=auto;html=1;exitX=0.5;exitY=1;exitDx=0;exitDy=0;entryX=0.5;entryY=0;entryDx=0;entryDy=0;" edge="1" parent="1" source="MhT_UDYgTqqJweD6gouw-1" target="MhT_UDYgTqqJweD6gouw-2">
          <mxGeometry relative="1" as="geometry" />
        </mxCell>
        <mxCell id="MhT_UDYgTqqJweD6gouw-1" value="START" style="ellipse;whiteSpace=wrap;html=1;" vertex="1" parent="1">
          <mxGeometry x="350" y="60" width="120" height="80" as="geometry" />
        </mxCell>
        <mxCell id="MhT_UDYgTqqJweD6gouw-5" style="edgeStyle=orthogonalEdgeStyle;rounded=0;orthogonalLoop=1;jettySize=auto;html=1;exitX=0.5;exitY=1;exitDx=0;exitDy=0;entryX=0.547;entryY=0.01;entryDx=0;entryDy=0;entryPerimeter=0;" edge="1" parent="1" source="MhT_UDYgTqqJweD6gouw-2" target="MhT_UDYgTqqJweD6gouw-4">
          <mxGeometry relative="1" as="geometry">
            <Array as="points">
              <mxPoint x="410" y="321" />
            </Array>
          </mxGeometry>
        </mxCell>
        <mxCell id="MhT_UDYgTqqJweD6gouw-2" value="BUTTON PRESSED" style="shape=parallelogram;perimeter=parallelogramPerimeter;whiteSpace=wrap;html=1;fixedSize=1;" vertex="1" parent="1">
          <mxGeometry x="320" y="200" width="180" height="60" as="geometry" />
        </mxCell>
        <mxCell id="MhT_UDYgTqqJweD6gouw-11" style="edgeStyle=orthogonalEdgeStyle;rounded=0;orthogonalLoop=1;jettySize=auto;html=1;exitX=0.5;exitY=1;exitDx=0;exitDy=0;entryX=0.5;entryY=0;entryDx=0;entryDy=0;" edge="1" parent="1" source="MhT_UDYgTqqJweD6gouw-4" target="MhT_UDYgTqqJweD6gouw-7">
          <mxGeometry relative="1" as="geometry" />
        </mxCell>
        <mxCell id="MhT_UDYgTqqJweD6gouw-4" value="INFORMATION SENDS TO MCU" style="rounded=0;whiteSpace=wrap;html=1;" vertex="1" parent="1">
          <mxGeometry x="310" y="320" width="190" height="60" as="geometry" />
        </mxCell>
        <mxCell id="MhT_UDYgTqqJweD6gouw-9" style="edgeStyle=orthogonalEdgeStyle;rounded=0;orthogonalLoop=1;jettySize=auto;html=1;exitX=1;exitY=0.5;exitDx=0;exitDy=0;" edge="1" parent="1" source="MhT_UDYgTqqJweD6gouw-7" target="MhT_UDYgTqqJweD6gouw-8">
          <mxGeometry relative="1" as="geometry" />
        </mxCell>
        <mxCell id="MhT_UDYgTqqJweD6gouw-13" style="edgeStyle=orthogonalEdgeStyle;rounded=0;orthogonalLoop=1;jettySize=auto;html=1;exitX=0.5;exitY=1;exitDx=0;exitDy=0;entryX=0.5;entryY=0;entryDx=0;entryDy=0;" edge="1" parent="1" source="MhT_UDYgTqqJweD6gouw-7" target="MhT_UDYgTqqJweD6gouw-12">
          <mxGeometry relative="1" as="geometry" />
        </mxCell>
        <mxCell id="MhT_UDYgTqqJweD6gouw-7" value="BUTTON PRESSED" style="rhombus;whiteSpace=wrap;html=1;" vertex="1" parent="1">
          <mxGeometry x="330" y="420" width="160" height="140" as="geometry" />
        </mxCell>
        <mxCell id="MhT_UDYgTqqJweD6gouw-8" value="LED GLOW" style="shape=parallelogram;perimeter=parallelogramPerimeter;whiteSpace=wrap;html=1;fixedSize=1;" vertex="1" parent="1">
          <mxGeometry x="600" y="460" width="120" height="60" as="geometry" />
        </mxCell>
        <mxCell id="MhT_UDYgTqqJweD6gouw-10" value="YES" style="text;html=1;align=center;verticalAlign=middle;resizable=0;points=[];autosize=1;strokeColor=none;fillColor=none;" vertex="1" parent="1">
          <mxGeometry x="520" y="470" width="40" height="20" as="geometry" />
        </mxCell>
        <mxCell id="MhT_UDYgTqqJweD6gouw-12" value="END" style="ellipse;whiteSpace=wrap;html=1;" vertex="1" parent="1">
          <mxGeometry x="345" y="630" width="120" height="100" as="geometry" />
        </mxCell>
        <mxCell id="MhT_UDYgTqqJweD6gouw-14" value="NO" style="text;html=1;align=center;verticalAlign=middle;resizable=0;points=[];autosize=1;strokeColor=none;fillColor=none;" vertex="1" parent="1">
          <mxGeometry x="415" y="570" width="30" height="20" as="geometry" />
        </mxCell>
      </root>
    </mxGraphModel>
  </diagram>
</mxfile>
